M48
;FILE_FORMAT=2:4
INCH
;TYPE=PLATED
T01C0.012
T02C0.020
T03C0.031
T04C0.034
T05C0.035
T06C0.037
T07C0.038
T08C0.040
T09C0.045
T10C0.054
T11C0.059
T12C0.071
T13C0.087
T14C0.095
T15C0.118
T16C0.160
%
T01
X+032539Y+057500
Y+059508
X+033445Y+037165
Y+038268
Y+044213
Y+045768
Y+048504
Y+049764
Y+052205
Y+053268
X+037224Y+024390
X+037638Y+032008
X+036457Y+035000
X+037106Y+033346
Y+034843
X+037638Y+035138
Y+033976
Y+036969
X+036457Y+048760
X+036870Y+054744
X+041142Y+025177
X+040157Y+025335
X+040571Y+032461
X+041378
X+041535Y+037421
X+039469Y+042343
X+041299Y+046476
X+040984Y+048996
Y+053189
X+041102Y+056260
X+041398Y+061496
Y+064449
X+042618Y+011083
X+044665Y+011398
X+043661Y+011240
X+043268Y+020472
X+044272Y+020315
X+042264Y+020630
X+043150Y+024862
X+042750Y+043000
X+043937Y+048563
X+042854Y+059409
X+042756Y+060492
Y+068661
X+044488Y+069724
X+045669Y+011634
X+045591Y+018366
X+046339Y+020000
X+045276Y+020157
X+046752Y+028071
X+047264Y+027283
X+045748Y+032008
Y+035276
Y+034114
X+047126Y+038445
X+045748Y+038169
Y+037165
Y+040177
Y+039291
Y+045512
Y+048681
Y+050295
X+047303Y+052795
X+045748Y+055157
Y+056122
X+047244Y+058996
X+045748Y+058110
Y+059154
Y+060571
Y+061339
Y+062224
Y+063760
Y+064272
X+048760Y+017303
X+049744Y+017461
Y+027520
X+048740Y+027677
X+048602Y+032461
X+049409
X+050217
X+050669Y+033366
X+049213Y+041417
X+048937Y+042677
X+049173Y+042343
X+048543Y+049488
X+048681Y+048917
X+049370Y+052441
X+048701Y+057992
X+048760Y+065079
X+052598Y+016476
Y+023346
X+052106Y+047343
X+053445Y+047598
X+051516Y+046831
X+051280Y+048563
X+052598Y+049173
X+051437Y+049252
X+052815Y+048799
X+053642Y+049547
X+051457Y+051732
X+051791
X+051929Y+054882
X+052756
X+053583
X+051319Y+056299
X+051654Y+060492
Y+061496
X+052815Y+063996
X+051890Y+064606
X+052244Y+067402
X+056260Y+025650
X+054409Y+024547
X+055079Y+024390
X+054961Y+029311
Y+030571
X+055295Y+032520
Y+031339
Y+033268
X+055177Y+042480
X+055709Y+046398
X+054862
X+055984Y+047224
X+056378Y+046516
X+056043Y+045512
X+054390Y+046417
X+055000Y+048937
X+055827Y+048327
X+054567Y+049547
X+055433
X+056358
X+054921Y+056004
X+054409Y+054882
X+056063Y+054902
X+055236
X+055335Y+061437
X+056594Y+061535
X+055177Y+064606
X+054508Y+068661
X+058012Y+020709
X+058996Y+020551
X+057736Y+023346
X+059331Y+025177
X+058327Y+025335
X+057343Y+025492
X+058504Y+046516
X+059291Y+046004
X+058051Y+048780
X+059587Y+050650
X+059075
X+059567Y+049173
X+057480Y+049547
X+059252Y+051378
X+058937
X+059154Y+052362
X+057500Y+052677
X+057717Y+054882
X+059055Y+064016
X+057500Y+068563
X+061004Y+020236
X+062028Y+020079
X+062343Y+024783
X+060335Y+025020
X+061654Y+031654
X+062264Y+030630
X+062539Y+032244
X+062343Y+033898
X+060492Y+037480
Y+037835
Y+037126
X+061614Y+038425
X+062224
X+061614Y+037165
Y+038071
X+062047Y+040906
X+062697Y+044094
X+061949
X+061969Y+042913
X+062539
X+061358Y+045709
X+061654Y+050256
X+062126Y+050374
X+062579Y+052953
X+062697Y+053465
X+062343Y+053209
X+062579Y+055669
X+061811Y+055689
X+061378
X+062323Y+058189
X+062559Y+058484
X+060591Y+058917
X+065492Y+019331
X+064094Y+019685
X+063681Y+028147
X+064311Y+028150
X+064469Y+027835
X+065098Y+027598
X+065728Y+027441
X+064311Y+030276
X+064429Y+031083
X+065492Y+032244
X+064311
X+063445Y+034409
X+064547Y+035197
X+063287Y+034882
X+064547
Y+034567
Y+034252
X+063917Y+034409
X+064902Y+036732
X+065059Y+041457
X+065138Y+040610
X+064665Y+040059
X+065295Y+041201
X+063858Y+044094
X+065492
X+063268Y+042618
X+065728Y+042402
X+063799Y+042913
X+065295
X+065689Y+047028
X+064370Y+047067
X+064606Y+046811
X+065610Y+048366
X+064075Y+048346
X+065000Y+049921
X+063701Y+050374
X+064606
X+064311Y+048602
X+065610Y+051398
X+063543Y+052520
X+063307Y+055669
X+063622
X+064114
X+064567
X+064882
X+064488Y+057854
X+065551Y+058898
X+066496Y+019488
X+067500Y+019646
X+066890Y+030276
X+068366Y+031063
X+068268Y+032244
X+066673
X+066949Y+035433
X+066713Y+035669
X+067657Y+034724
X+066398Y+036969
X+066555Y+036496
X+067657Y+038071
Y+040906
X+067854Y+044094
X+068051Y+042402
X+068327Y+042913
X+067657
X+068228Y+048858
X+068465Y+049114
X+066752Y+048346
X+068701Y+049370
X+066772Y+049272
X+068248Y+050374
X+068406Y+051417
X+066417Y+055669
X+066280Y+058957
X+066516Y+059193
X+069390Y+011496
X+071634Y+012795
X+071358Y+012638
X+070256Y+012480
X+069626Y+015354
X+070492Y+016457
X+070728Y+016693
X+069862Y+016299
X+070807Y+015512
X+071437Y+015669
X+069941Y+019488
X+069626Y+020433
X+069941Y+019173
Y+031063
X+071614Y+032244
X+071024
X+069843
X+071004Y+035197
X+071713Y+038425
Y+041220
X+071063Y+041201
X+071299Y+044094
X+071024Y+042913
X+071673Y+047421
X+070669Y+048858
X+070433Y+049114
X+070197Y+049370
X+070295Y+051732
X+070827Y+056713
X+072480Y+028661
X+072992Y+030630
X+072894Y+032067
X+073484Y+034134
X+074528Y+035256
X+072303Y+035315
X+073484Y+036693
X+074528Y+036496
X+072303Y+038661
Y+037283
X+073484Y+039843
X+072303Y+040906
X+073386Y+043957
X+073917Y+044469
X+072303Y+042362
X+073386Y+043504
X+073406Y+043031
X+074154Y+046969
X+073917Y+046732
X+074606Y+046260
X+072677Y+048858
X+073543Y+049469
X+072795
X+073996Y+049154
X+074134Y+051417
X+074114Y+052913
X+076004Y+011339
X+076319
X+076004Y+015827
X+076319
X+076004Y+020335
X+076319
X+077224Y+028661
X+077638Y+027461
X+077106Y+030945
X+077323Y+032323
X+076693Y+031201
X+077441Y+034134
X+076693Y+038012
X+075453Y+037421
Y+041220
Y+039843
Y+044508
X+077736Y+049350
X+075531Y+050177
X+076004Y+052185
Y+051398
Y+053327
X+075335Y+051772
Y+053307
X+076004Y+054469
Y+055610
X+076850Y+064409
X+077165Y+068209
X+080000Y+011024
X+080315
X+080000Y+015512
X+080315
X+080000Y+020020
X+080315
X+080591Y+038012
X+080689Y+036988
X+078366Y+046772
X+080020Y+049035
X+080157Y+048287
X+078366Y+058661
X+078563Y+060394
X+082441Y+038484
X+083071Y+036831
X+083130Y+041142
X+083642Y+041476
X+083465Y+040492
Y+039508
X+081398Y+042323
X+081654Y+045689
X+081417Y+047362
X+083110Y+049665
X+081358Y+051496
Y+054508
X+083602Y+058957
X+081358Y+062382
X+082972Y+060689
X+083130Y+063740
Y+065098
X+086083Y+010650
X+085256
Y+019665
X+086083
X+085945Y+024311
X+085984Y+037539
X+086201Y+041299
Y+043937
Y+046535
X+084429Y+045768
X+086043Y+049705
X+086358Y+053012
Y+054331
X+084409Y+058465
X+089390Y+010650
X+088563
X+087736
Y+019665
X+088563
X+089390
X+087539Y+029508
X+087854
X+089508Y+027264
X+087992Y+033701
X+089488Y+036988
X+088169Y+038327
X+087776Y+038484
X+087992Y+041299
X+087598
X+087795Y+041614
X+088386
X+088189Y+045748
X+087717Y+045827
X+089154Y+049744
X+089665Y+048327
X+087382Y+052441
X+089016Y+058701
X+088760Y+058445
X+088268Y+058110
X+088071Y+058740
X+088366Y+061319
X+087795Y+063602
X+091043Y+010650
Y+019665
X+092461Y+023602
X+090591Y+027421
X+091575Y+027579
X+092579Y+027736
X+092421Y+033524
X+091988Y+033839
X+090472Y+036988
X+092106Y+037500
X+091988Y+041299
X+090925Y+041614
X+090886Y+045906
X+091161Y+045669
X+092146Y+046063
X+092480
X+092200Y+049900
X+091654Y+052697
X+091339
X+092185Y+055886
X+092500Y+055650
X+091004Y+054350
X+091575Y+062598
X+093425Y+020020
X+095591Y+028209
X+094587Y+028051
X+093583Y+027894
X+095433Y+031004
X+093661Y+033839
X+093465Y+039291
X+095453Y+039528
X+094587Y+040098
X+095157Y+039370
X+094587Y+041083
X+095394Y+041693
X+095315Y+044685
X+095709Y+045610
X+095295Y+045413
X+095591Y+049724
X+093602Y+049902
X+094114Y+049665
X+095177Y+052736
X+093976Y+051909
X+093543Y+055984
X+094429Y+057461
X+093799Y+059035
X+098740Y+011240
X+096594Y+028445
X+096575Y+031299
X+096791Y+033543
X+097913Y+034094
X+097008Y+036949
X+097913Y+037717
Y+036732
X+097598Y+039626
Y+039941
X+097126Y+040276
X+096594Y+042697
X+097717Y+046476
X+098681Y+046161
X+097185Y+046319
X+096594
X+096555Y+048366
X+097087Y+049961
X+097303Y+052067
X+098287Y+063524
X+099882Y+014252
X+099961Y+021280
X+101457Y+027854
X+099843
X+101398Y+031949
X+101437Y+034213
X+100650Y+039429
X+101181Y+041732
X+099665Y+046161
X+101673
X+099980Y+047657
X+100689Y+046161
X+101339Y+054449
X+099409Y+056614
X+099606Y+059390
X+100433Y+058406
Y+057618
X+099606Y+063996
X+100748Y+064154
X+099547Y+070906
X+102480Y+011732
X+102441Y+027461
X+103602
X+102953Y+031476
X+102618Y+031791
X+104094Y+034370
X+103445Y+034862
X+103327Y+035650
X+104114Y+037736
X+104154Y+036988
Y+036634
Y+036280
X+103602Y+039429
X+103563Y+042461
X+104508Y+046161
X+102697
X+103996Y+047736
X+103524Y+046161
X+103189
X+104232Y+049862
X+102657Y+052638
X+104213Y+052087
X+103780
X+103819Y+065374
X+105276Y+018465
X+105433Y+021496
X+106220Y+027461
X+106024Y+029508
X+105492Y+030591
X+105945Y+030748
X+106417Y+030591
X+105571Y+035059
Y+035374
X+105354Y+035630
X+106043Y+033819
X+105669Y+035689
X+107244Y+038465
X+106575Y+037657
X+106457Y+037953
X+106299Y+038228
X+105965Y+038386
X+107500Y+041476
X+105512Y+046161
X+106850Y+047736
X+105413Y+049547
X+106181Y+053484
X+105728Y+051594
X+106201Y+051437
X+106050Y+055850
X+105374Y+055846
X+107697Y+063799
X+107146Y+068484
X+110295Y+017264
Y+016909
X+110000Y+019449
X+108720Y+022461
X+110059Y+026476
X+109882Y+028819
X+109016Y+028996
X+109390Y+035728
X+110492Y+034213
X+109744Y+033346
X+109390Y+034862
X+109055Y+034213
X+110512Y+039902
X+109528Y+041161
X+109508Y+045295
X+108898Y+049823
X+112421Y+018425
X+112697Y+022461
X+113091Y+030669
X+113248Y+031299
X+113720Y+033583
X+111496Y+034213
X+113484Y+034547
X+112441Y+034862
X+112992Y+033819
X+112500Y+041142
X+111516
Y+043150
X+112500Y+043287
X+111358Y+046476
X+113012Y+054685
X+114941Y+019035
X+114350Y+030906
X+114409Y+042972
X+114370Y+046181
Y+045610
X+032717Y+047992
X+033445Y+044783
Y+050768
X+036870Y+033012
Y+035827
X+037638Y+036142
X+038642Y+068957
X+040276Y+020945
X+039272Y+021102
X+041280Y+020787
X+041102Y+069252
X+046142Y+023917
X+045748Y+036181
Y+033228
Y+051043
Y+053937
Y+057165
X+048268Y+027047
X+049252Y+026890
X+048780Y+053957
X+051929Y+053878
X+053583
X+052756
X+052146Y+059843
X+053602Y+069252
X+055709Y+024232
X+056024Y+023760
X+055295Y+030138
X+055866Y+045000
X+055020Y+045118
X+055000Y+048031
X+055236Y+053878
X+056063
X+054429
X+059252Y+042008
X+059350Y+045000
X+061969Y+017835
X+062539Y+032835
X+061988Y+053976
X+063327Y+023996
X+064311Y+029961
X+064783Y+027205
X+065571Y+026969
X+064232Y+027205
X+065059Y+041772
X+064094Y+041752
X+063524Y+053976
X+064232Y+059941
X+066969Y+029961
Y+032835
X+066752Y+050925
X+068248
X+071122Y+012008
X+070492Y+011850
X+071319Y+032835
X+071713Y+030197
X+070689Y+051161
X+070433Y+057028
X+072480Y+029823
X+073957Y+051161
X+083130Y+059921
X+083602Y+060197
X+081496Y+066063
X+086083Y+015157
X+085256
X+086201Y+048150
X+086496Y+039035
X+085965Y+051240
X+088563Y+015157
X+089390
X+087736
X+089252Y+041772
X+088780Y+041929
X+089646Y+056909
X+088996Y+051043
X+088583Y+053957
X+088209Y+065925
X+088661Y+066161
X+091043Y+015157
X+091550Y+057100
X+091929Y+051043
X+093543Y+042087
X+094488Y+045157
X+094193Y+057224
X+094665
X+093563Y+060000
X+095177Y+051043
X+097992Y+014764
X+097913Y+032756
X+097894Y+035866
X+097913Y+033248
X+098071Y+026988
X+097913Y+039016
X+098287Y+059862
X+098366Y+051043
X+099724Y+015256
X+099665Y+033130
X+100846
X+101713Y+057224
X+099291Y+051043
X+100177
X+103799Y+033130
X+103169Y+026988
X+105276Y+015000
X+106319Y+033130
X+105984
X+105630
X+107146Y+069094
X+109469Y+021004
X+109882Y+030177
X+110453Y+038858
X+108484Y+042106
X+110118Y+047776
X+114409Y+044843
X+033031Y+035000
X+032874Y+037657
X+036004Y+042579
X+036201Y+053563
X+033189Y+051476
X+045157Y+009961
X+047756Y+017067
X+039232Y+023681
X+045157Y+024705
X+042146Y+025020
X+047756Y+027835
X+042185Y+032461
X+039213Y+038661
X+039154Y+041220
X+045118Y+043996
X+044862Y+046339
Y+047106
X+045000Y+050197
X+060000Y+020394
X+050748Y+027441
X+054075Y+035472
Y+034488
Y+038484
Y+037500
Y+036496
Y+041516
Y+040551
Y+039488
X+050807Y+042343
X+051240Y+043091
X+054075Y+044646
Y+043425
Y+042303
X+060256Y+049528
X+060236Y+052185
Y+051673
X+060020Y+051929
X+051181Y+051555
X+056890Y+054882
X+056988Y+059311
X+071909Y+012953
X+072067Y+015827
X+068996Y+016142
Y+020276
X+063012Y+019921
X+062854Y+030984
X+063130Y+035354
X+062815Y+036339
X+066083Y+040453
X+066240Y+040138
X+068819Y+044094
X+063031Y+042323
X+065807Y+044291
X+065886Y+042913
X+066161Y+047028
X+065768Y+049390
X+066161Y+050374
X+063071Y+052697
X+068839Y+051732
X+063071Y+053720
X+065846Y+053681
X+066024Y+055669
X+065787Y+058642
X+068957Y+067146
X+083760Y+033996
X+075177Y+036299
X+074823Y+038248
Y+037697
X+084134Y+044606
X+083957Y+043445
X+083760Y+042461
X+080945Y+045531
X+081024Y+047677
X+083917Y+049272
X+084252Y+048661
X+078228Y+053445
X+083917Y+052776
X+083760Y+056496
X+081102Y+058957
X+078110Y+057500
X+083976Y+061791
X+080748Y+060492
X+077953Y+064665
X+077795Y+064193
X+081161Y+065709
X+083898Y+065728
X+090217Y+010650
X+086909
X+095906Y+014173
Y+016516
X+086909Y+019665
X+090217
X+086909Y+029508
X+087224
X+096024Y+030984
X+093130Y+037244
X+092756Y+037854
X+093130Y+038484
X+093150Y+041299
X+092815Y+041457
X+090059Y+042795
X+090000Y+046378
X+092972Y+046220
X+096142Y+045374
X+096102Y+047677
X+093130Y+051594
X+092795Y+056555
X+096004Y+056201
X+093051Y+055965
X+086772Y+055728
X+095984Y+059094
X+096220Y+058425
Y+062402
X+095984Y+061398
X+096240Y+066417
X+098976Y+013740
X+104803Y+027461
X+108110
X+101870Y+031949
X+104862Y+030433
X+102067Y+031339
X+102224Y+034449
X+098957Y+033543
X+104941Y+033346
X+099035Y+037618
Y+036634
X+101870Y+039370
X+102106Y+040709
X+108012Y+039370
X+108031Y+047736
X+104921Y+051909
X+105236
X+113957Y+018957
X+114114Y+031142
X+113878Y+030669
X+110945Y+037461
X+032953Y+053760
X+038996Y+023917
X+057008Y+020866
X+054016Y+024232
X+051240Y+035945
X+051142Y+033110
X+060000Y+039232
X+056831Y+048031
X+051043Y+045177
X+059764Y+038996
X+060236Y+051161
X+068917Y+012165
X+065787Y+032835
X+062815Y+036024
X+066161Y+047894
X+080965Y+041929
X+081181Y+038780
X+074941Y+050906
X+095906Y+011831
X+090217Y+015157
X+086909
X+095768Y+032756
X+095827Y+041890
X+090000Y+051043
X+102106Y+033130
X+105256Y+033189
X+102165Y+047933
X+099173
T02
X+031988Y+064843
X+038012
X+036555
X+044252Y+015394
X+043740Y+017126
X+044331Y+065453
X+047106Y+031161
X+047244Y+065453
X+045748Y+064843
X+052598Y+011358
X+051673Y+015394
Y+021496
X+052854Y+031516
Y+032500
X+056398Y+066398
X+059272Y+055138
X+061004Y+028661
X+065000Y+047323
Y+052126
X+073996Y+011260
X+072953Y+025965
X+074409Y+031594
X+072343Y+052126
Y+054961
X+076004Y+047598
Y+050413
X+075335Y+055039
X+076693
X+078346Y+068661
X+086496Y+050315
X+087402Y+051831
X+092500Y+058012
X+094587Y+034567
X+093996Y+046772
X+097500Y+023602
X+098287Y+069980
X+100906Y+018996
X+100453Y+022598
X+101004Y+052480
X+103425Y+023563
X+102657Y+069902
X+106870Y+064724
X+108622Y+025472
Y+031909
X+112441Y+037461
X+113622Y+047500
X+114547Y+031909
Y+034213
X+031280Y+030138
X+037638
X+040000
X+045748
X+061004
X+065000Y+054173
X+072953Y+017835
X+076004Y+024035
X+075512Y+059724
X+081398Y+023878
X+084409Y+026890
X+091004Y+056909
X+112441Y+036240
X+039232Y+031161
X+039252Y+065453
X+060197Y+046417
X+083760Y+023602
Y+025256
X+086752Y+053504
X+108091Y+023563
X+047992Y+030138
X+071713Y+032835
X+108091Y+021004
T03
X+065950Y+069000
Y+071000
X+067950Y+069000
Y+071000
X+065500Y+070000
X+068400
X+066950Y+068550
Y+071450
X+114000Y+071000
X+112000Y+069000
X+113000Y+071450
Y+068550
X+114000Y+069000
X+112000Y+071000
X+114450Y+070000
X+111550
X+114000Y+014850
X+112000Y+012850
X+113000Y+015300
Y+012400
X+114000Y+012850
X+112000Y+014850
X+114450Y+013850
X+111550
X+035550Y+069000
Y+071000
X+037550Y+069000
Y+071000
X+035100Y+070000
X+038000
X+036550Y+068550
Y+071450
X+083650Y+069000
Y+071000
X+085650Y+069000
Y+071000
X+083200Y+070000
X+086100
X+084650Y+068550
Y+071450
X+035550Y+012850
Y+014850
X+037550Y+012850
Y+014850
X+035100Y+013850
X+038000
X+036550Y+012400
Y+015300
T04
X+057000Y+050000
X+058000
X+054000
X+055000
X+052000
X+058000Y+053000
X+057000
X+055000
X+054000
X+052000
X+056000Y+050000
X+059000
X+053000
X+059000Y+053000
X+056000
X+053000
X+082000Y+052500
Y+051500
Y+055500
Y+054500
Y+057500
X+085000Y+051500
Y+052500
Y+054500
Y+055500
Y+057500
X+082000Y+053500
Y+050500
Y+056500
X+085000Y+050500
Y+053500
Y+056500
X+094368Y+012217
X+095118Y+012717
X+093618
X+094368Y+016941
X+095118Y+017441
X+093618
X+094368Y+014579
X+095118Y+015079
X+093618
X+089000Y+035500
X+088000
X+092000
X+091000
X+094000
X+088000Y+032500
X+089000
X+091000
X+092000
X+094000
X+090000Y+035500
X+087000
X+093000
X+087000Y+032500
X+090000
X+093000
X+089000Y+043500
X+088000
X+092000
X+091000
X+094000
X+088000Y+040500
X+089000
X+091000
X+092000
X+094000
X+090000Y+043500
X+087000
X+093000
X+087000Y+040500
X+090000
X+093000
X+089000Y+047500
X+088000
X+092000
X+091000
X+094000
X+088000Y+044500
X+089000
X+091000
X+092000
X+094000
X+090000Y+047500
X+087000
X+093000
X+087000Y+044500
X+090000
X+093000
Y+050500
X+094000
X+090000
X+091000
X+088000
X+094000Y+053500
X+093000
X+091000
X+090000
X+088000
X+092000Y+050500
X+089000
X+092000Y+053500
X+089000
X+103839Y+019500
Y+020500
Y+022500
X+106839Y+019500
Y+020500
Y+022500
X+103839Y+021500
X+106839
X+103834Y+015000
Y+016000
Y+018000
X+106834Y+015000
Y+016000
Y+018000
X+103834Y+017000
X+106834
X+105800Y+059900
X+103815Y+058740
X+105488Y+062972
X+046500Y+041000
Y+038000
Y+039000
Y+035000
Y+036000
Y+032000
Y+033000
X+043500Y+041000
Y+039000
Y+038000
Y+036000
Y+035000
Y+033000
Y+032000
X+046500Y+037000
Y+040000
Y+034000
X+043500Y+040000
Y+037000
Y+034000
X+046500Y+052000
Y+049000
Y+050000
Y+046000
Y+047000
Y+043000
Y+044000
X+043500Y+052000
Y+050000
Y+049000
Y+047000
Y+046000
Y+044000
Y+043000
X+046500Y+048000
Y+051000
Y+045000
X+043500Y+051000
Y+048000
Y+045000
X+051988Y+031004
Y+034004
Y+033004
Y+037004
Y+036004
Y+040004
Y+039004
Y+043004
Y+042004
Y+046004
Y+045004
X+057988Y+031004
Y+033004
Y+034004
Y+036004
Y+037004
Y+039004
Y+040004
Y+042004
Y+043004
Y+045004
Y+046004
X+051988Y+038004
Y+035004
Y+032004
Y+044004
Y+041004
X+057988Y+032004
Y+035004
Y+038004
Y+041004
Y+044004
X+053500Y+031000
Y+034000
Y+033000
Y+037000
Y+036000
Y+040000
Y+039000
Y+043000
Y+042000
Y+046000
Y+045000
X+056500Y+031000
Y+033000
Y+034000
Y+036000
Y+037000
Y+039000
Y+040000
Y+042000
Y+043000
Y+045000
Y+046000
X+053500Y+038000
Y+035000
Y+032000
Y+044000
Y+041000
X+056500Y+032000
Y+035000
Y+038000
Y+041000
Y+044000
X+054500Y+066000
Y+063000
Y+064000
Y+060000
Y+061000
Y+057000
Y+058000
X+051500Y+066000
Y+064000
Y+063000
Y+061000
Y+060000
Y+058000
Y+057000
X+054500Y+062000
Y+065000
Y+059000
X+051500Y+065000
Y+062000
Y+059000
X+082000Y+061500
Y+060500
Y+064500
Y+063500
Y+066500
X+085000Y+060500
Y+061500
Y+063500
Y+064500
Y+066500
X+082000Y+062500
Y+059500
Y+065500
X+085000Y+059500
Y+062500
Y+065500
X+089000Y+039500
X+088000
X+092000
X+091000
X+094000
X+088000Y+036500
X+089000
X+091000
X+092000
X+094000
X+090000Y+039500
X+087000
X+093000
X+087000Y+036500
X+090000
X+093000
X+089500Y+066500
Y+063500
Y+064500
Y+060500
Y+061500
Y+057500
Y+058500
X+086500Y+066500
Y+064500
Y+063500
Y+061500
Y+060500
Y+058500
Y+057500
X+089500Y+062500
Y+065500
Y+059500
X+086500Y+065500
Y+062500
Y+059500
X+092500Y+062000
Y+061000
Y+065000
Y+064000
Y+067000
X+095500Y+061000
Y+062000
Y+064000
Y+065000
Y+067000
X+092500Y+063000
Y+060000
Y+066000
X+095500Y+060000
Y+063000
Y+066000
X+091000Y+059000
Y+058000
Y+062000
Y+061000
Y+065000
Y+064000
Y+068000
Y+067000
X+097000Y+058000
Y+059000
Y+061000
Y+062000
Y+064000
Y+065000
Y+067000
Y+068000
X+091000Y+063000
Y+060000
Y+069000
Y+066000
X+097000Y+060000
Y+063000
Y+066000
Y+069000
X+103834Y+010500
Y+011500
Y+013500
X+106834Y+010500
Y+011500
Y+013500
X+103834Y+012500
X+106834
X+114500Y+030000
Y+027000
Y+028000
Y+024000
Y+025000
Y+021000
Y+022000
X+111500Y+030000
Y+028000
Y+027000
Y+025000
Y+024000
Y+022000
Y+021000
X+114500Y+026000
Y+029000
Y+023000
X+111500Y+029000
Y+026000
Y+023000
X+046500Y+063000
Y+060000
Y+061000
Y+057000
Y+058000
Y+054000
Y+055000
X+043500Y+063000
Y+061000
Y+060000
Y+058000
Y+057000
Y+055000
Y+054000
X+046500Y+059000
Y+062000
Y+056000
X+043500Y+062000
Y+059000
Y+056000
X+050750Y+016250
X+047750
X+048750
X+044750
X+045750
X+041750
X+042750
X+038750
X+039750
X+035750
X+036750
X+050750Y+019250
X+048750
X+047750
X+045750
X+044750
X+042750
X+041750
X+039750
X+038750
X+036750
X+035750
X+043750Y+016250
X+046750
X+049750
X+037750
X+040750
X+049750Y+019250
X+046750
X+043750
X+040750
X+037750
X+049500Y+067500
X+050500
X+046500
X+047500
X+044500
X+050500Y+070500
X+049500
X+047500
X+046500
X+044500
X+048500Y+067500
X+045500
X+048500Y+070500
X+045500
X+098000Y+019000
X+099000
X+095000
X+096000
X+093000
X+099000Y+022000
X+098000
X+096000
X+095000
X+093000
X+097000Y+019000
X+094000
X+097000Y+022000
X+094000
X+083000Y+015000
X+080000
X+081000
X+077000
X+078000
X+074000
X+075000
X+083000Y+018000
X+081000
X+080000
X+078000
X+077000
X+075000
X+074000
X+079000Y+015000
X+082000
X+076000
X+082000Y+018000
X+079000
X+076000
X+083000Y+019500
X+080000
X+081000
X+077000
X+078000
X+074000
X+075000
X+083000Y+022500
X+081000
X+080000
X+078000
X+077000
X+075000
X+074000
X+079000Y+019500
X+082000
X+076000
X+082000Y+022500
X+079000
X+076000
X+082500Y+039500
Y+042500
Y+041500
Y+045500
Y+044500
Y+048500
Y+047500
X+085500Y+039500
Y+041500
Y+042500
Y+044500
Y+045500
Y+047500
Y+048500
X+082500Y+043500
Y+040500
Y+046500
X+085500Y+040500
Y+043500
Y+046500
X+076000Y+057500
X+073000
X+074000
X+070000
X+071000
X+067000
X+068000
X+076000Y+060500
X+074000
X+073000
X+071000
X+070000
X+068000
X+067000
X+072000Y+057500
X+075000
X+069000
X+075000Y+060500
X+072000
X+069000
X+071260Y+068209
X+070260
X+074260
X+073260
X+076260
X+070260Y+065209
X+071260
X+073260
X+074260
X+076260
X+072260Y+068209
X+075260
X+072260Y+065209
X+075260
X+062000Y+065200
X+063000
X+059000
X+060000
X+057000
X+063000Y+068200
X+062000
X+060000
X+059000
X+057000
X+061000Y+065200
X+058000
X+061000Y+068200
X+058000
X+038504Y+037008
Y+038008
Y+034008
Y+035008
Y+032008
X+035504Y+038008
Y+037008
Y+035008
Y+034008
Y+032008
X+038504Y+036008
Y+033008
X+035504Y+036008
Y+033008
X+050750Y+023050
X+047750
X+048750
X+044750
X+045750
X+041750
X+042750
X+038750
X+039750
X+035750
X+036750
X+050750Y+026050
X+048750
X+047750
X+045750
X+044750
X+042750
X+041750
X+039750
X+038750
X+036750
X+035750
X+043750Y+023050
X+046750
X+049750
X+037750
X+040750
X+049750Y+026050
X+046750
X+043750
X+040750
X+037750
X+082500Y+026000
Y+029000
Y+028000
Y+032000
Y+031000
Y+035000
Y+034000
X+085500Y+026000
Y+028000
Y+029000
Y+031000
Y+032000
Y+034000
Y+035000
X+082500Y+030000
Y+027000
Y+033000
X+085500Y+027000
Y+030000
Y+033000
X+083000Y+010500
X+080000
X+081000
X+077000
X+078000
X+074000
X+075000
X+083000Y+013500
X+081000
X+080000
X+078000
X+077000
X+075000
X+074000
X+079000Y+010500
X+082000
X+076000
X+082000Y+013500
X+079000
X+076000
X+108972Y+062894
X+068500Y+018450
X+065500
X+066500
X+062500
X+063500
X+059500
X+060500
X+056500
X+057500
X+053500
X+054500
X+068500Y+021450
X+066500
X+065500
X+063500
X+062500
X+060500
X+059500
X+057500
X+056500
X+054500
X+053500
X+061500Y+018450
X+064500
X+067500
X+055500
X+058500
X+067500Y+021450
X+064500
X+061500
X+058500
X+055500
X+105500Y+050500
X+102500
X+103500
X+099500
X+100500
X+096500
X+097500
X+105500Y+053500
X+103500
X+102500
X+100500
X+099500
X+097500
X+096500
X+101500Y+050500
X+104500
X+098500
X+104500Y+053500
X+101500
X+098500
X+064984Y+057500
X+061984
X+062984
X+058984
X+059984
X+055984
X+056984
X+064984Y+060500
X+062984
X+061984
X+059984
X+058984
X+056984
X+055984
X+060984Y+057500
X+063984
X+057984
X+063984Y+060500
X+060984
X+057984
X+068500Y+011650
X+065500
X+066500
X+062500
X+063500
X+059500
X+060500
X+056500
X+057500
X+053500
X+054500
X+068500Y+014650
X+066500
X+065500
X+063500
X+062500
X+060500
X+059500
X+057500
X+056500
X+054500
X+053500
X+061500Y+011650
X+064500
X+067500
X+055500
X+058500
X+067500Y+014650
X+064500
X+061500
X+058500
X+055500
X+090000Y+055000
X+089000
X+093000
X+092000
X+096000
X+095000
X+099000
X+098000
X+102000
X+101000
X+105000
X+104000
X+107000
X+089000Y+049000
X+090000
X+092000
X+093000
X+095000
X+096000
X+098000
X+099000
X+101000
X+102000
X+104000
X+105000
X+107000
X+097000Y+055000
X+094000
X+091000
X+088000
X+106000
X+103000
X+100000
X+088000Y+049000
X+091000
X+094000
X+097000
X+100000
X+103000
X+106000
T06
X+109547Y+053150
Y+054150
X+052539Y+028642
X+051539
X+107500Y+032500
X+108500
X+106800Y+059900
X+102815Y+058740
X+104488Y+062972
X+111500Y+032500
X+112500
X+110500
X+109500
X+107972Y+062894
T07
X+100886Y+031654
X+106535Y+035236
Y+036240
X+109250Y+070500
Y+069500
Y+067500
Y+066500
Y+068500
Y+065500
X+060433Y+055768
X+098000Y+014000
X+098957Y+065354
Y+067244
X+108543Y+057244
Y+059244
Y+060244
Y+058244
X+102650Y+068711
Y+067726
X+105327Y+068711
X+105288Y+067726
X+104500Y+068711
X+103477
X+111024Y+019449
Y+018465
X+111949Y+017264
X+113949
X+114949
X+112949
X+051358Y+012657
Y+013657
Y+014657
X+108720Y+019429
Y+020413
T08
X+032000Y+063000
Y+062000
X+034000Y+063000
Y+062000
X+032000Y+060000
Y+059000
X+034000Y+060000
Y+059000
X+032000Y+057000
Y+056000
X+034000Y+057000
Y+056000
X+032000Y+054000
Y+053000
X+034000Y+054000
Y+053000
X+032000Y+051000
Y+050000
X+034000Y+051000
Y+050000
X+032000Y+048000
Y+047000
X+034000Y+048000
Y+047000
X+032000Y+045000
Y+044000
X+034000Y+045000
Y+044000
X+032000Y+042000
Y+041000
X+034000Y+042000
Y+041000
X+032000Y+039000
Y+038000
X+034000Y+039000
Y+038000
X+032000Y+036000
Y+035000
X+034000Y+036000
Y+035000
X+032000Y+064000
Y+061000
X+034000Y+064000
Y+061000
X+032000Y+058000
Y+055000
Y+052000
Y+049000
X+034000Y+058000
Y+055000
Y+052000
Y+049000
X+032000Y+046000
Y+043000
Y+040000
Y+037000
X+034000Y+046000
Y+043000
Y+040000
Y+037000
X+032000Y+034000
X+034000
X+040000Y+063000
Y+062000
X+042000Y+063000
Y+062000
X+040000Y+060000
Y+059000
X+042000Y+060000
Y+059000
X+040000Y+057000
Y+056000
X+042000Y+057000
Y+056000
X+040000Y+054000
Y+053000
X+042000Y+054000
Y+053000
X+040000Y+051000
Y+050000
X+042000Y+051000
Y+050000
X+040000Y+048000
Y+047000
X+042000Y+048000
Y+047000
X+040000Y+045000
Y+044000
X+042000Y+045000
Y+044000
X+040000Y+042000
Y+041000
X+042000Y+042000
Y+041000
X+040000Y+039000
Y+038000
X+042000Y+039000
Y+038000
X+040000Y+036000
Y+035000
X+042000Y+036000
Y+035000
X+040000Y+064000
Y+061000
X+042000Y+064000
Y+061000
X+040000Y+058000
Y+055000
Y+052000
Y+049000
X+042000Y+058000
Y+055000
Y+052000
Y+049000
X+040000Y+046000
Y+043000
Y+040000
Y+037000
X+042000Y+046000
Y+043000
Y+040000
Y+037000
X+040000Y+034000
X+042000
X+080000Y+031500
Y+032500
Y+034500
Y+035500
Y+037500
Y+038500
Y+040500
Y+041500
Y+043500
Y+044500
Y+046500
Y+047500
Y+050500
Y+052500
Y+053500
Y+055500
Y+056500
Y+058500
Y+059500
Y+061500
Y+062500
Y+064500
Y+065500
Y+067500
X+079000Y+030000
Y+032000
Y+033000
Y+035000
Y+036000
Y+038000
Y+039000
Y+041000
Y+042000
Y+044000
Y+045000
Y+047000
Y+050000
Y+051000
Y+053000
Y+054000
Y+056000
Y+057000
Y+059000
Y+060000
Y+062000
Y+063000
Y+065000
Y+066000
X+080000Y+030500
Y+033500
Y+036500
Y+039500
Y+042500
Y+045500
Y+051500
Y+054500
Y+057500
Y+060500
Y+063500
Y+066500
X+079000Y+031000
Y+034000
Y+037000
Y+040000
Y+043000
Y+046000
Y+052000
Y+055000
Y+058000
Y+061000
Y+064000
Y+067000
X+048000Y+063000
Y+062000
X+050000Y+063000
Y+062000
X+048000Y+060000
Y+059000
X+050000Y+060000
Y+059000
X+048000Y+057000
Y+056000
X+050000Y+057000
Y+056000
X+048000Y+054000
Y+053000
X+050000Y+054000
Y+053000
X+048000Y+051000
Y+050000
X+050000Y+051000
Y+050000
X+048000Y+048000
Y+047000
X+050000Y+048000
Y+047000
X+048000Y+045000
Y+044000
X+050000Y+045000
Y+044000
X+048000Y+042000
Y+041000
X+050000Y+042000
Y+041000
X+048000Y+039000
Y+038000
X+050000Y+039000
Y+038000
X+048000Y+036000
Y+035000
X+050000Y+036000
Y+035000
X+048000Y+064000
Y+061000
X+050000Y+064000
Y+061000
X+048000Y+058000
Y+055000
Y+052000
Y+049000
X+050000Y+058000
Y+055000
Y+052000
Y+049000
X+048000Y+046000
Y+043000
Y+040000
Y+037000
X+050000Y+046000
Y+043000
Y+040000
Y+037000
X+048000Y+034000
X+050000
T09
X+043161Y+014016
X+042161
X+046161
X+045161
X+043161Y+013016
X+042161
X+046161
X+045161
X+044161Y+014016
Y+013016
X+101900Y+011250
Y+014250
Y+013250
Y+017250
Y+016250
X+100900Y+011250
Y+014250
Y+013250
Y+017250
Y+016250
X+101900Y+015250
Y+012250
Y+018250
X+100900Y+015250
Y+012250
Y+018250
X+072250Y+070900
X+071250
X+075250
X+074250
X+072250Y+069900
X+071250
X+075250
X+074250
X+073250Y+070900
Y+069900
X+112000Y+040650
X+113000
X+109000
X+110000
X+112000Y+041650
X+113000
X+109000
X+110000
X+111000Y+040650
Y+041650
X+109902Y+014240
Y+015240
Y+011240
Y+012240
X+108902Y+014240
Y+015240
Y+011240
Y+012240
X+109902Y+013240
X+108902
X+107500Y+030000
X+104500
X+105500
X+101500
X+102500
X+098500
X+099500
X+095500
X+096500
X+092500
X+093500
X+089500
X+090500
X+107500Y+029000
X+104500
X+105500
X+101500
X+102500
X+098500
X+099500
X+095500
X+096500
X+092500
X+093500
X+089500
X+090500
X+097500Y+030000
X+100500
X+103500
X+106500
X+088500
X+091500
X+094500
X+097500Y+029000
X+100500
X+103500
X+106500
X+088500
X+091500
X+094500
X+112000Y+044000
X+113000
X+109000
X+110000
X+106000
X+107000
X+103000
X+104000
X+100000
X+101000
X+097000
X+098000
X+112000Y+045000
X+113000
X+109000
X+110000
X+106000
X+107000
X+103000
X+104000
X+100000
X+101000
X+097000
X+098000
X+105000Y+044000
X+108000
X+111000
X+099000
X+102000
X+105000Y+045000
X+108000
X+111000
X+099000
X+102000
X+058500Y+070900
X+057500
X+061500
X+060500
X+058500Y+069900
X+057500
X+061500
X+060500
X+059500Y+070900
Y+069900
X+107500Y+026000
X+104500
X+105500
X+101500
X+102500
X+098500
X+099500
X+095500
X+096500
X+092500
X+093500
X+089500
X+090500
X+107500Y+025000
X+104500
X+105500
X+101500
X+102500
X+098500
X+099500
X+095500
X+096500
X+092500
X+093500
X+089500
X+090500
X+097500Y+026000
X+100500
X+103500
X+106500
X+088500
X+091500
X+094500
X+097500Y+025000
X+100500
X+103500
X+106500
X+088500
X+091500
X+094500
X+067500Y+063343
X+068500
X+064500
X+065500
X+061500
X+062500
X+058500
X+059500
X+067500Y+062343
X+068500
X+064500
X+065500
X+061500
X+062500
X+058500
X+059500
X+063500Y+063343
X+066500
X+069500
X+057500
X+060500
X+063500Y+062343
X+066500
X+069500
X+057500
X+060500
T10
X+101994Y+066008
X+105934
X+102004Y+070988
X+103004
X+105004
X+106004
X+101004Y+066988
X+103964
X+106924
T11
X+112598Y+065453
X+114764
X+112598Y+062146
Y+063799
X+114764Y+062146
Y+063799
X+112598Y+060492
X+114764
X+112598Y+057185
X+114764
X+112598Y+053878
X+114764
X+112598Y+050571
X+114764
X+112598Y+058839
X+114764
X+112598Y+055531
Y+052224
X+114764Y+055531
Y+052224
T12
X+079500Y+026750
Y+048750
T13
X+101351Y+069892
X+103989Y+070207
X+106626Y+069892
T14
X+079500Y+070750
T15
X+112780Y+067303
Y+048720
T16
X+066950Y+070000
X+113000
Y+013850
X+036550Y+070000
X+084650
X+036550Y+013850
T00
M30
