<svg xmlns="http://www.w3.org/2000/svg" viewBox="0 0 194 40">
	<defs>
		<style>.cls-1{fill:#00b4f2;}.cls-2{fill:#fff;}</style>
	</defs>
	<path class="cls-1" d="M88.16,8.4,89.91,2h34.43Z"/>
	<path class="cls-2" d="M85,11c-2.14,0-6.63-.17-9.9,4.2l1-4h-9l-.9,4.16L61.94,30.71h9.25l2.26-8.27c.62-2.1,2.23-5.23,7.92-5.23a18.57,18.57,0,0,1,1.94.12C83.28,17.27,85,11,85,11Zm2.32.12L82,30.68h9.27l5.37-19.52Zm30-.42c-5.14,0-7.66,1.94-9.21,3.43l.74-3H99.64l-.91,4.17-4.2,15.35h9.24l3.08-11.18a5.23,5.23,0,0,1,5.3-4.1c3.81,0,3,2.74,2.65,4.1l-3.07,11.18H121l3.26-11.83C125,16.2,126.47,10.74,117.38,10.74Zm20.31,11.93,1.84-6.76h6l1.26-4.65h-5.88l1.29-4.68L132.8,8.23l-.84,3H127.6l-1.26,4.65h4.2L128,25.28c-1.07,3.78-.13,5.72,7.27,5.72a42.8,42.8,0,0,0,6.14-.36l1.26-4.58a16.42,16.42,0,0,1-2.32.13c-3.56,0-3.24-1.1-2.65-3.52Zm33.1-.17c.94-3.39,1.16-5.23.52-6.88-.94-2.74-3.5-4.91-10.41-4.91-9.15,0-14.39,4.2-16.17,10.66s1.94,9.79,10.57,9.79c6.44,0,12.77-1.87,14.81-6.72h-8.63c-.74,1.81-2.59,2.81-5,2.81-4.76,0-3.69-3.65-3.43-4.68Zm-11-8c4,0,3.55,2.94,3.33,4h-9A5.78,5.78,0,0,1,159.8,14.52Zm24.28.72,1-4H176l-.9,4.16-4.2,15.35h9.24l2.26-8.27c.62-2.1,2.23-5.23,7.92-5.23a18.57,18.57,0,0,1,1.94.12L194,11.07c-2.17-.1-6.66-.2-9.92,4.17ZM54.51,10.68a13,13,0,0,0-9.09,3.26l.65-2.74H36.89c-.19.8-.19,1-.71,3.2L29.65,38.11l9.86-1.75,2.2-8c.81,1,2.32,2.72,6.75,2.72,5.69,0,12-2.94,14.07-10.53C64.76,12.55,58.68,10.68,54.51,10.68ZM53.28,20.4c-.81,2.94-2.52,6.34-6.59,6.34-4.47,0-3.56-4.24-3.11-5.79.29-1.13,1.65-6,6.6-6C54.28,14.88,53.8,18.53,53.28,20.4ZM23.93,14.33l-6.21-1.61c-1.36-.36-3.36-1-2.68-3C15.55,8.1,17.78,6.93,20.66,7a5.59,5.59,0,0,1,2.69.68l0,0s.06,0,.09.07c1.39,1,.78,2.74.55,3.42H34.21c.09-.36.19-.74.29-1.16.42-2.14.16-4.88-3.85-6.56A24.8,24.8,0,0,0,22.41,2C11.74,1.54,6.05,5.61,4.6,10.07,2.72,15.85,8.7,17.43,11,18l8.14,2.14c2.23.61,2.65,1.51,2.23,2.81-1,3.13-5.49,2.94-6.33,2.9-5.85-.26-5-3.52-4.53-4.81H.43A7.31,7.31,0,0,0,0,24.28a5.05,5.05,0,0,0,1.19,2.81c2.33,3,8.18,3.78,11.9,3.94,8.92.39,16.62-2.16,18.59-8.3,1.91-5.85-3.36-7.24-7.79-8.4Z"/>
</svg>
